<svg width="16" height="16" viewBox="0 0 16 16" fill="none" xmlns="http://www.w3.org/2000/svg">
<g clip-path="url(#clip0_1_229)">
<path fill-rule="evenodd" clip-rule="evenodd" d="M9.90996 8.93531C9.60715 9.05906 9.41371 9.53312 9.21746 9.77531C9.11684 9.89937 8.99684 9.91875 8.84215 9.85656C7.70559 9.40375 6.83434 8.64531 6.20715 7.59937C6.1009 7.43719 6.11996 7.30906 6.24809 7.15844C6.43746 6.93531 6.67559 6.68187 6.72684 6.38125C6.84059 5.71625 5.97121 3.65344 4.82309 4.58813C1.51934 7.28031 10.3343 14.4206 11.9253 10.5588C12.3753 9.46406 10.4118 8.72969 9.90996 8.93531ZM7.99996 14.6025C6.83152 14.6025 5.68184 14.2919 4.67527 13.7037C4.51371 13.6091 4.3184 13.5841 4.13777 13.6331L1.95059 14.2334L2.71246 12.555C2.81621 12.3266 2.78965 12.0606 2.64309 11.8575C1.82809 10.7278 1.39715 9.39406 1.39715 8C1.39715 4.35906 4.35902 1.39719 7.99996 1.39719C11.6409 1.39719 14.6025 4.35906 14.6025 8C14.6025 11.6406 11.6406 14.6025 7.99996 14.6025ZM7.99996 0C3.58871 0 -3.84351e-05 3.58875 -3.84351e-05 8C-3.84351e-05 9.55188 0.440587 11.0422 1.27777 12.3356L0.0624616 15.0122C-0.0497259 15.2594 -0.00878842 15.5487 0.166837 15.7547C0.301837 15.9125 0.497149 16 0.698712 16C1.14934 16 3.60652 15.2278 4.23184 15.0562C5.38777 15.6747 6.68434 16 7.99996 16C12.4109 16 16 12.4109 16 8C16 3.58875 12.4109 0 7.99996 0Z" fill="white"/>
</g>
<defs>
<clipPath id="clip0_1_229">
<rect width="16" height="16" fill="white"/>
</clipPath>
</defs>
</svg>
